<svg width="113" height="14" viewBox="0 0 113 14" fill="none" xmlns="http://www.w3.org/2000/svg">
<path d="M3.738 1.124L1.638 7.41H5.824L3.738 1.124ZM6.706 10L6.02 7.984H1.442L0.756 10H0.112L3.486 0.199999H3.99L7.35 10H6.706ZM8.71052 0.199999H9.29852V10H8.71052V0.199999ZM11.7593 0.199999H12.3473V10H11.7593V0.199999ZM21.9039 4.526C21.7732 4.48867 21.6659 4.46533 21.5819 4.456C21.5072 4.44667 21.4139 4.442 21.3019 4.442C20.9005 4.442 20.5552 4.526 20.2659 4.694C19.9765 4.862 19.7339 5.08133 19.5379 5.352C19.3512 5.62267 19.2112 5.926 19.1179 6.262C19.0339 6.598 18.9919 6.934 18.9919 7.27V10H18.4039V3.966H18.9919V5.632C19.2065 5.02533 19.5239 4.582 19.9439 4.302C20.3732 4.01267 20.8259 3.868 21.3019 3.868C21.5445 3.868 21.7452 3.90067 21.9039 3.966V4.526ZM22.7697 1.516C22.7697 1.32 22.835 1.15667 22.9657 1.026C23.1057 0.886 23.269 0.816 23.4557 0.816C23.6517 0.816 23.815 0.886 23.9457 1.026C24.0857 1.15667 24.1557 1.32 24.1557 1.516C24.1557 1.70267 24.0857 1.866 23.9457 2.006C23.815 2.13667 23.6517 2.202 23.4557 2.202C23.269 2.202 23.1057 2.13667 22.9657 2.006C22.835 1.866 22.7697 1.70267 22.7697 1.516ZM23.1617 3.966H23.7497V10H23.1617V3.966ZM28.7585 4.386C28.3758 4.386 28.0258 4.456 27.7085 4.596C27.4005 4.736 27.1345 4.92267 26.9105 5.156C26.6865 5.38933 26.5138 5.66467 26.3925 5.982C26.2712 6.29933 26.2105 6.63067 26.2105 6.976C26.2105 7.33067 26.2712 7.66667 26.3925 7.984C26.5138 8.292 26.6865 8.56733 26.9105 8.81C27.1345 9.04333 27.4005 9.23 27.7085 9.37C28.0258 9.51 28.3758 9.58 28.7585 9.58C29.1505 9.58 29.5052 9.51 29.8225 9.37C30.1492 9.23 30.4245 9.04333 30.6485 8.81C30.8725 8.56733 31.0452 8.292 31.1665 7.984C31.2878 7.66667 31.3485 7.33067 31.3485 6.976C31.3485 6.63067 31.2878 6.29933 31.1665 5.982C31.0452 5.66467 30.8725 5.38933 30.6485 5.156C30.4245 4.92267 30.1492 4.736 29.8225 4.596C29.5052 4.456 29.1505 4.386 28.7585 4.386ZM31.9505 10.56C31.9505 11.176 31.8758 11.694 31.7265 12.114C31.5772 12.5433 31.3625 12.8887 31.0825 13.15C30.8118 13.4207 30.4758 13.612 30.0745 13.724C29.6825 13.8453 29.2345 13.906 28.7305 13.906C28.1892 13.906 27.7272 13.8267 27.3445 13.668C26.9712 13.5093 26.6632 13.2947 26.4205 13.024C26.1778 12.7533 25.9958 12.4407 25.8745 12.086C25.7625 11.7313 25.6972 11.358 25.6785 10.966H26.2665C26.2852 11.2833 26.3412 11.582 26.4345 11.862C26.5278 12.1513 26.6678 12.4033 26.8545 12.618C27.0505 12.842 27.3025 13.0193 27.6105 13.15C27.9185 13.2807 28.2918 13.346 28.7305 13.346C29.1412 13.346 29.5052 13.2947 29.8225 13.192C30.1492 13.0987 30.4245 12.94 30.6485 12.716C30.8725 12.5013 31.0452 12.2167 31.1665 11.862C31.2878 11.5073 31.3485 11.0733 31.3485 10.56V8.46C31.1432 8.964 30.8118 9.37 30.3545 9.678C29.9065 9.986 29.3698 10.14 28.7445 10.14C28.2685 10.14 27.8392 10.056 27.4565 9.888C27.0738 9.72 26.7425 9.49133 26.4625 9.202C26.1918 8.91267 25.9818 8.57667 25.8325 8.194C25.6832 7.81133 25.6085 7.40533 25.6085 6.976C25.6085 6.556 25.6832 6.15467 25.8325 5.772C25.9818 5.38933 26.1918 5.05333 26.4625 4.764C26.7425 4.47467 27.0738 4.246 27.4565 4.078C27.8392 3.91 28.2685 3.826 28.7445 3.826C29.3698 3.826 29.9065 3.98 30.3545 4.288C30.8118 4.596 31.1432 5.002 31.3485 5.506V3.966H31.9505V10.56ZM34.4 0.199999H34.988V5.534C35.072 5.31 35.184 5.09533 35.324 4.89C35.4733 4.67533 35.6506 4.49333 35.856 4.344C36.0706 4.18533 36.3086 4.05933 36.57 3.966C36.8406 3.87267 37.1346 3.826 37.452 3.826C38.2546 3.826 38.8613 4.06867 39.272 4.554C39.6733 4.99267 39.874 5.63667 39.874 6.486V10H39.286V6.64C39.286 6.32267 39.244 6.02867 39.16 5.758C39.0853 5.478 38.964 5.24 38.796 5.044C38.6373 4.83867 38.432 4.68 38.18 4.568C37.9373 4.44667 37.6433 4.386 37.298 4.386C36.9153 4.386 36.5793 4.46533 36.29 4.624C36.0006 4.77333 35.758 4.974 35.562 5.226C35.3753 5.46867 35.2306 5.744 35.128 6.052C35.0346 6.35067 34.988 6.64467 34.988 6.934V10H34.4V0.199999ZM45.3426 10C45.2213 10.0187 45.0673 10.0373 44.8806 10.056C44.6939 10.0747 44.5119 10.084 44.3346 10.084C44.1199 10.084 43.9099 10.0607 43.7046 10.014C43.4993 9.97667 43.3126 9.888 43.1446 9.748C42.9766 9.608 42.8413 9.40267 42.7386 9.132C42.6359 8.852 42.5846 8.474 42.5846 7.998V4.498H41.2546V3.966H42.5846V1.502H43.1726V3.966H45.1186V4.498H43.1726V7.914C43.1726 8.26867 43.2053 8.55333 43.2706 8.768C43.3453 8.98267 43.4386 9.146 43.5506 9.258C43.6626 9.37 43.7933 9.44467 43.9426 9.482C44.1013 9.51 44.2646 9.524 44.4326 9.524C44.5633 9.524 44.7173 9.51933 44.8946 9.51C45.0719 9.49133 45.2213 9.47267 45.3426 9.454V10ZM48.778 6.752C49.0486 6.808 49.3146 6.86867 49.576 6.934C49.8373 6.99933 50.066 7.088 50.262 7.2C50.4673 7.312 50.6306 7.466 50.752 7.662C50.8733 7.84867 50.934 8.096 50.934 8.404C50.934 8.964 50.7333 9.39333 50.332 9.692C49.9306 9.99067 49.366 10.14 48.638 10.14C48.2926 10.14 47.966 10.098 47.658 10.014C47.35 9.93 47.0793 9.804 46.846 9.636C46.6126 9.45867 46.426 9.23467 46.286 8.964C46.1553 8.684 46.09 8.348 46.09 7.956H46.678C46.678 8.264 46.7293 8.52533 46.832 8.74C46.9346 8.94533 47.0746 9.11333 47.252 9.244C47.4293 9.37467 47.6393 9.47267 47.882 9.538C48.1246 9.594 48.3813 9.622 48.652 9.622C49.212 9.622 49.6366 9.51933 49.926 9.314C50.2153 9.09933 50.36 8.80533 50.36 8.432C50.36 8.19867 50.304 8.012 50.192 7.872C50.0893 7.732 49.94 7.62 49.744 7.536C49.5573 7.44267 49.338 7.368 49.086 7.312C48.8433 7.256 48.582 7.2 48.302 7.144C48.0313 7.088 47.7746 7.032 47.532 6.976C47.2893 6.91067 47.0746 6.822 46.888 6.71C46.7106 6.598 46.566 6.44867 46.454 6.262C46.342 6.07533 46.286 5.83267 46.286 5.534C46.286 4.98333 46.4866 4.56333 46.888 4.274C47.2986 3.97533 47.8306 3.826 48.484 3.826C48.82 3.826 49.1326 3.87267 49.422 3.966C49.7113 4.05 49.9586 4.176 50.164 4.344C50.3786 4.512 50.542 4.722 50.654 4.974C50.7753 5.226 50.836 5.51067 50.836 5.828H50.248C50.248 5.33333 50.0846 4.96467 49.758 4.722C49.4406 4.47 49.0206 4.344 48.498 4.344C48.0033 4.344 47.6066 4.44667 47.308 4.652C47.0093 4.85733 46.86 5.156 46.86 5.548C46.86 5.75333 46.902 5.92133 46.986 6.052C47.0793 6.18267 47.21 6.29 47.378 6.374C47.546 6.458 47.7466 6.528 47.98 6.584C48.2226 6.64 48.4886 6.696 48.778 6.752ZM59.8111 5.926C60.2031 5.926 60.5577 5.86067 60.8751 5.73C61.1924 5.59 61.4631 5.40333 61.6871 5.17C61.9111 4.93667 62.0837 4.666 62.2051 4.358C62.3264 4.04067 62.3871 3.70933 62.3871 3.364C62.3871 3.00933 62.3264 2.678 62.2051 2.37C62.0837 2.05267 61.9111 1.77733 61.6871 1.544C61.4631 1.30133 61.1924 1.11467 60.8751 0.983999C60.5577 0.843999 60.2031 0.773999 59.8111 0.773999H57.1371V5.926H59.8111ZM56.5211 0.199999H59.8111C60.2964 0.199999 60.7351 0.283999 61.1271 0.451999C61.5191 0.619999 61.8551 0.848666 62.1351 1.138C62.4151 1.42733 62.6297 1.76333 62.7791 2.146C62.9284 2.52867 63.0031 2.93467 63.0031 3.364C63.0031 3.728 62.9471 4.078 62.8351 4.414C62.7231 4.74067 62.5644 5.03933 62.3591 5.31C62.1537 5.58067 61.9017 5.814 61.6031 6.01C61.3044 6.19667 60.9731 6.332 60.6091 6.416L62.9191 10H62.1911L59.9511 6.5H57.1371V10H56.5211V0.199999ZM64.7118 7.046C64.7118 7.382 64.7585 7.70867 64.8518 8.026C64.9545 8.334 65.1038 8.60467 65.2998 8.838C65.4958 9.07133 65.7432 9.258 66.0418 9.398C66.3498 9.538 66.7092 9.608 67.1198 9.608C67.6798 9.608 68.1278 9.482 68.4638 9.23C68.8092 8.96867 69.0425 8.66067 69.1638 8.306H69.7798C69.7238 8.54867 69.6212 8.782 69.4718 9.006C69.3225 9.23 69.1312 9.426 68.8978 9.594C68.6738 9.762 68.4125 9.89733 68.1138 10C67.8152 10.0933 67.4838 10.14 67.1198 10.14C66.6158 10.14 66.1772 10.056 65.8038 9.888C65.4305 9.71067 65.1178 9.47733 64.8658 9.188C64.6138 8.89867 64.4272 8.56267 64.3058 8.18C64.1845 7.79733 64.1238 7.396 64.1238 6.976C64.1238 6.528 64.1892 6.11267 64.3198 5.73C64.4505 5.338 64.6418 5.002 64.8938 4.722C65.1458 4.442 65.4538 4.22267 65.8178 4.064C66.1818 3.90533 66.6018 3.826 67.0778 3.826C67.4698 3.826 67.8338 3.896 68.1698 4.036C68.5058 4.176 68.7998 4.36733 69.0518 4.61C69.3038 4.85267 69.4998 5.13733 69.6398 5.464C69.7892 5.79067 69.8638 6.14533 69.8638 6.528C69.8638 6.59333 69.8638 6.668 69.8638 6.752C69.8638 6.836 69.8545 6.934 69.8358 7.046H64.7118ZM67.0638 4.316C66.3638 4.316 65.8085 4.52133 65.3978 4.932C64.9965 5.34267 64.7725 5.87933 64.7258 6.542H69.2758C69.2758 6.206 69.2152 5.90267 69.0938 5.632C68.9818 5.36133 68.8232 5.128 68.6178 4.932C68.4218 4.736 68.1885 4.58667 67.9178 4.484C67.6565 4.372 67.3718 4.316 67.0638 4.316ZM73.9616 6.752C74.2322 6.808 74.4982 6.86867 74.7596 6.934C75.0209 6.99933 75.2496 7.088 75.4456 7.2C75.6509 7.312 75.8142 7.466 75.9356 7.662C76.0569 7.84867 76.1176 8.096 76.1176 8.404C76.1176 8.964 75.9169 9.39333 75.5156 9.692C75.1142 9.99067 74.5496 10.14 73.8216 10.14C73.4762 10.14 73.1496 10.098 72.8416 10.014C72.5336 9.93 72.2629 9.804 72.0296 9.636C71.7962 9.45867 71.6096 9.23467 71.4696 8.964C71.3389 8.684 71.2736 8.348 71.2736 7.956H71.8616C71.8616 8.264 71.9129 8.52533 72.0156 8.74C72.1182 8.94533 72.2582 9.11333 72.4356 9.244C72.6129 9.37467 72.8229 9.47267 73.0656 9.538C73.3082 9.594 73.5649 9.622 73.8356 9.622C74.3956 9.622 74.8202 9.51933 75.1096 9.314C75.3989 9.09933 75.5436 8.80533 75.5436 8.432C75.5436 8.19867 75.4876 8.012 75.3756 7.872C75.2729 7.732 75.1236 7.62 74.9276 7.536C74.7409 7.44267 74.5216 7.368 74.2696 7.312C74.0269 7.256 73.7656 7.2 73.4856 7.144C73.2149 7.088 72.9582 7.032 72.7156 6.976C72.4729 6.91067 72.2582 6.822 72.0716 6.71C71.8942 6.598 71.7496 6.44867 71.6376 6.262C71.5256 6.07533 71.4696 5.83267 71.4696 5.534C71.4696 4.98333 71.6702 4.56333 72.0716 4.274C72.4822 3.97533 73.0142 3.826 73.6676 3.826C74.0036 3.826 74.3162 3.87267 74.6056 3.966C74.8949 4.05 75.1422 4.176 75.3476 4.344C75.5622 4.512 75.7256 4.722 75.8376 4.974C75.9589 5.226 76.0196 5.51067 76.0196 5.828H75.4316C75.4316 5.33333 75.2682 4.96467 74.9416 4.722C74.6242 4.47 74.2042 4.344 73.6816 4.344C73.1869 4.344 72.7902 4.44667 72.4916 4.652C72.1929 4.85733 72.0436 5.156 72.0436 5.548C72.0436 5.75333 72.0856 5.92133 72.1696 6.052C72.2629 6.18267 72.3936 6.29 72.5616 6.374C72.7296 6.458 72.9302 6.528 73.1636 6.584C73.4062 6.64 73.6722 6.696 73.9616 6.752ZM78.165 7.046C78.165 7.382 78.2116 7.70867 78.305 8.026C78.4076 8.334 78.557 8.60467 78.753 8.838C78.949 9.07133 79.1963 9.258 79.495 9.398C79.803 9.538 80.1623 9.608 80.573 9.608C81.133 9.608 81.581 9.482 81.917 9.23C82.2623 8.96867 82.4956 8.66067 82.617 8.306H83.233C83.177 8.54867 83.0743 8.782 82.925 9.006C82.7756 9.23 82.5843 9.426 82.351 9.594C82.127 9.762 81.8656 9.89733 81.567 10C81.2683 10.0933 80.937 10.14 80.573 10.14C80.069 10.14 79.6303 10.056 79.257 9.888C78.8836 9.71067 78.571 9.47733 78.319 9.188C78.067 8.89867 77.8803 8.56267 77.759 8.18C77.6376 7.79733 77.577 7.396 77.577 6.976C77.577 6.528 77.6423 6.11267 77.773 5.73C77.9036 5.338 78.095 5.002 78.347 4.722C78.599 4.442 78.907 4.22267 79.271 4.064C79.635 3.90533 80.055 3.826 80.531 3.826C80.923 3.826 81.287 3.896 81.623 4.036C81.959 4.176 82.253 4.36733 82.505 4.61C82.757 4.85267 82.953 5.13733 83.093 5.464C83.2423 5.79067 83.317 6.14533 83.317 6.528C83.317 6.59333 83.317 6.668 83.317 6.752C83.317 6.836 83.3076 6.934 83.289 7.046H78.165ZM80.517 4.316C79.817 4.316 79.2616 4.52133 78.851 4.932C78.4496 5.34267 78.2256 5.87933 78.179 6.542H82.729C82.729 6.206 82.6683 5.90267 82.547 5.632C82.435 5.36133 82.2763 5.128 82.071 4.932C81.875 4.736 81.6416 4.58667 81.371 4.484C81.1096 4.372 80.825 4.316 80.517 4.316ZM88.7867 4.526C88.656 4.48867 88.5487 4.46533 88.4647 4.456C88.39 4.44667 88.2967 4.442 88.1847 4.442C87.7834 4.442 87.438 4.526 87.1487 4.694C86.8594 4.862 86.6167 5.08133 86.4207 5.352C86.234 5.62267 86.094 5.926 86.0007 6.262C85.9167 6.598 85.8747 6.934 85.8747 7.27V10H85.2867V3.966H85.8747V5.632C86.0894 5.02533 86.4067 4.582 86.8267 4.302C87.256 4.01267 87.7087 3.868 88.1847 3.868C88.4274 3.868 88.628 3.90067 88.7867 3.966V4.526ZM89.6105 3.966L92.0045 9.174L94.4265 3.966H95.0705L92.2425 10H91.7665L88.9665 3.966H89.6105ZM96.1571 7.046C96.1571 7.382 96.2038 7.70867 96.2971 8.026C96.3998 8.334 96.5491 8.60467 96.7451 8.838C96.9411 9.07133 97.1885 9.258 97.4871 9.398C97.7951 9.538 98.1545 9.608 98.5651 9.608C99.1251 9.608 99.5731 9.482 99.9091 9.23C100.254 8.96867 100.488 8.66067 100.609 8.306H101.225C101.169 8.54867 101.066 8.782 100.917 9.006C100.768 9.23 100.576 9.426 100.343 9.594C100.119 9.762 99.8578 9.89733 99.5591 10C99.2605 10.0933 98.9291 10.14 98.5651 10.14C98.0611 10.14 97.6225 10.056 97.2491 9.888C96.8758 9.71067 96.5631 9.47733 96.3111 9.188C96.0591 8.89867 95.8725 8.56267 95.7511 8.18C95.6298 7.79733 95.5691 7.396 95.5691 6.976C95.5691 6.528 95.6345 6.11267 95.7651 5.73C95.8958 5.338 96.0871 5.002 96.3391 4.722C96.5911 4.442 96.8991 4.22267 97.2631 4.064C97.6271 3.90533 98.0471 3.826 98.5231 3.826C98.9151 3.826 99.2791 3.896 99.6151 4.036C99.9511 4.176 100.245 4.36733 100.497 4.61C100.749 4.85267 100.945 5.13733 101.085 5.464C101.234 5.79067 101.309 6.14533 101.309 6.528C101.309 6.59333 101.309 6.668 101.309 6.752C101.309 6.836 101.3 6.934 101.281 7.046H96.1571ZM98.5091 4.316C97.8091 4.316 97.2538 4.52133 96.8431 4.932C96.4418 5.34267 96.2178 5.87933 96.1711 6.542H100.721C100.721 6.206 100.66 5.90267 100.539 5.632C100.427 5.36133 100.268 5.128 100.063 4.932C99.8671 4.736 99.6338 4.58667 99.3631 4.484C99.1018 4.372 98.8171 4.316 98.5091 4.316ZM105.827 9.58C106.219 9.58 106.574 9.51 106.891 9.37C107.218 9.23 107.493 9.04333 107.717 8.81C107.941 8.57667 108.114 8.306 108.235 7.998C108.356 7.68067 108.417 7.34467 108.417 6.99C108.417 6.63533 108.356 6.304 108.235 5.996C108.114 5.67867 107.941 5.40333 107.717 5.17C107.493 4.92733 107.218 4.736 106.891 4.596C106.574 4.456 106.219 4.386 105.827 4.386C105.444 4.386 105.094 4.456 104.777 4.596C104.469 4.736 104.203 4.92733 103.979 5.17C103.755 5.40333 103.582 5.67867 103.461 5.996C103.34 6.304 103.279 6.63533 103.279 6.99C103.279 7.34467 103.34 7.68067 103.461 7.998C103.582 8.306 103.755 8.57667 103.979 8.81C104.203 9.04333 104.469 9.23 104.777 9.37C105.094 9.51 105.444 9.58 105.827 9.58ZM108.417 8.474C108.212 8.96867 107.88 9.37 107.423 9.678C106.975 9.986 106.438 10.14 105.813 10.14C105.337 10.14 104.908 10.056 104.525 9.888C104.142 9.72 103.811 9.49133 103.531 9.202C103.26 8.91267 103.05 8.57667 102.901 8.194C102.752 7.81133 102.677 7.41 102.677 6.99C102.677 6.56067 102.752 6.15467 102.901 5.772C103.05 5.38933 103.26 5.05333 103.531 4.764C103.811 4.47467 104.142 4.246 104.525 4.078C104.908 3.91 105.337 3.826 105.813 3.826C106.438 3.826 106.975 3.98 107.423 4.288C107.88 4.596 108.212 5.002 108.417 5.506V0.199999H109.019V10H108.417V8.474ZM110.992 9.37C110.992 9.174 111.057 9.01067 111.188 8.88C111.319 8.74933 111.477 8.684 111.664 8.684C111.86 8.684 112.023 8.74933 112.154 8.88C112.294 9.01067 112.364 9.174 112.364 9.37C112.364 9.566 112.294 9.72933 112.154 9.86C112.023 9.99067 111.86 10.056 111.664 10.056C111.477 10.056 111.319 9.99067 111.188 9.86C111.057 9.72933 110.992 9.566 110.992 9.37Z" fill="#100F0F"/>
</svg>
