<svg width="84" height="14" viewBox="0 0 84 14" fill="none" xmlns="http://www.w3.org/2000/svg">
<path d="M0.232 0.199999H3.522C4.00733 0.199999 4.446 0.283999 4.838 0.451999C5.23 0.619999 5.566 0.848666 5.846 1.138C6.126 1.42733 6.34067 1.76333 6.49 2.146C6.63933 2.52867 6.714 2.93467 6.714 3.364C6.714 3.784 6.63933 4.18533 6.49 4.568C6.34067 4.95067 6.126 5.28667 5.846 5.576C5.566 5.856 5.23 6.08 4.838 6.248C4.446 6.416 4.00733 6.5 3.522 6.5H0.848V10H0.232V0.199999ZM3.522 5.926C3.914 5.926 4.26867 5.86067 4.586 5.73C4.90333 5.59 5.174 5.40333 5.398 5.17C5.622 4.93667 5.79467 4.666 5.916 4.358C6.03733 4.04067 6.098 3.70933 6.098 3.364C6.098 3.00933 6.03733 2.678 5.916 2.37C5.79467 2.05267 5.622 1.77733 5.398 1.544C5.174 1.30133 4.90333 1.11467 4.586 0.983999C4.26867 0.843999 3.914 0.773999 3.522 0.773999H0.848V5.926H3.522ZM11.8531 4.526C11.7224 4.48867 11.6151 4.46533 11.5311 4.456C11.4564 4.44667 11.3631 4.442 11.2511 4.442C10.8498 4.442 10.5044 4.526 10.2151 4.694C9.92576 4.862 9.68309 5.08133 9.48709 5.352C9.30043 5.62267 9.16043 5.926 9.06709 6.262C8.98309 6.598 8.94109 6.934 8.94109 7.27V10H8.35309V3.966H8.94109V5.632C9.15576 5.02533 9.47309 4.582 9.89309 4.302C10.3224 4.01267 10.7751 3.868 11.2511 3.868C11.4938 3.868 11.6944 3.90067 11.8531 3.966V4.526ZM12.7189 1.516C12.7189 1.32 12.7842 1.15667 12.9149 1.026C13.0549 0.886 13.2182 0.816 13.4049 0.816C13.6009 0.816 13.7642 0.886 13.8949 1.026C14.0349 1.15667 14.1049 1.32 14.1049 1.516C14.1049 1.70267 14.0349 1.866 13.8949 2.006C13.7642 2.13667 13.6009 2.202 13.4049 2.202C13.2182 2.202 13.0549 2.13667 12.9149 2.006C12.7842 1.866 12.7189 1.70267 12.7189 1.516ZM13.1109 3.966H13.6989V10H13.1109V3.966ZM15.7257 3.966L18.1197 9.174L20.5417 3.966H21.1857L18.3577 10H17.8817L15.0817 3.966H15.7257ZM24.7644 9.58C25.1564 9.58 25.511 9.51 25.8284 9.37C26.155 9.23 26.4304 9.04333 26.6544 8.81C26.8784 8.57667 27.051 8.306 27.1724 7.998C27.2937 7.68067 27.3544 7.34467 27.3544 6.99C27.3544 6.63533 27.2937 6.304 27.1724 5.996C27.051 5.67867 26.8784 5.40333 26.6544 5.17C26.4304 4.92733 26.155 4.736 25.8284 4.596C25.511 4.456 25.1564 4.386 24.7644 4.386C24.3817 4.386 24.0317 4.456 23.7144 4.596C23.4064 4.736 23.1404 4.92733 22.9164 5.17C22.6924 5.40333 22.5197 5.67867 22.3984 5.996C22.277 6.304 22.2164 6.63533 22.2164 6.99C22.2164 7.34467 22.277 7.68067 22.3984 7.998C22.5197 8.306 22.6924 8.57667 22.9164 8.81C23.1404 9.04333 23.4064 9.23 23.7144 9.37C24.0317 9.51 24.3817 9.58 24.7644 9.58ZM27.9564 3.966V10H27.3544V8.474C27.149 8.96867 26.8177 9.37 26.3604 9.678C25.9124 9.986 25.3757 10.14 24.7504 10.14C24.2744 10.14 23.845 10.056 23.4624 9.888C23.0797 9.72 22.7484 9.49133 22.4684 9.202C22.1977 8.91267 21.9877 8.57667 21.8384 8.194C21.689 7.81133 21.6144 7.41 21.6144 6.99C21.6144 6.56067 21.689 6.15467 21.8384 5.772C21.9877 5.38933 22.1977 5.05333 22.4684 4.764C22.7484 4.47467 23.0797 4.246 23.4624 4.078C23.845 3.91 24.2744 3.826 24.7504 3.826C25.3757 3.826 25.9124 3.98 26.3604 4.288C26.8177 4.596 27.149 5.002 27.3544 5.506V3.966H27.9564ZM35.0955 6.164C35.0675 5.93067 35.0068 5.70667 34.9135 5.492C34.8202 5.27733 34.6848 5.086 34.5075 4.918C34.3395 4.75 34.1202 4.61933 33.8495 4.526C33.5788 4.42333 33.2568 4.372 32.8835 4.372C32.4915 4.372 32.1462 4.44667 31.8475 4.596C31.5488 4.736 31.2968 4.92733 31.0915 5.17C30.8862 5.40333 30.7322 5.67867 30.6295 5.996C30.5268 6.31333 30.4755 6.64 30.4755 6.976C30.4755 7.32133 30.5268 7.65267 30.6295 7.97C30.7322 8.278 30.8815 8.55333 31.0775 8.796C31.2828 9.02933 31.5348 9.22067 31.8335 9.37C32.1415 9.51 32.5008 9.58 32.9115 9.58C33.2568 9.58 33.5555 9.538 33.8075 9.454C34.0688 9.37 34.2882 9.25333 34.4655 9.104C34.6428 8.95467 34.7828 8.782 34.8855 8.586C34.9975 8.38067 35.0768 8.16133 35.1235 7.928H35.7255C35.6788 8.236 35.5855 8.52533 35.4455 8.796C35.3148 9.06667 35.1328 9.30467 34.8995 9.51C34.6662 9.706 34.3815 9.86 34.0455 9.972C33.7095 10.084 33.3222 10.14 32.8835 10.14C32.3888 10.14 31.9548 10.0513 31.5815 9.874C31.2082 9.69667 30.8955 9.46333 30.6435 9.174C30.3915 8.87533 30.2002 8.53933 30.0695 8.166C29.9482 7.78333 29.8875 7.38667 29.8875 6.976C29.8875 6.56533 29.9528 6.17333 30.0835 5.8C30.2142 5.41733 30.4055 5.08133 30.6575 4.792C30.9095 4.49333 31.2222 4.26 31.5955 4.092C31.9688 3.91467 32.3982 3.826 32.8835 3.826C33.3595 3.826 33.7702 3.896 34.1155 4.036C34.4608 4.16667 34.7455 4.33933 34.9695 4.554C35.1935 4.76867 35.3615 5.02067 35.4735 5.31C35.5948 5.59 35.6695 5.87467 35.6975 6.164H35.0955ZM40.3673 13.906C39.3966 13.906 38.6919 13.6587 38.2533 13.164C37.8239 12.6787 37.5999 11.96 37.5813 11.008H38.1693C38.2066 11.7827 38.3886 12.3707 38.7153 12.772C39.0513 13.1733 39.6066 13.374 40.3813 13.374C41.0906 13.374 41.6273 13.1827 41.9913 12.8C42.3646 12.4173 42.5513 11.75 42.5513 10.798V8.432C42.4673 8.656 42.3506 8.87533 42.2013 9.09C42.0613 9.29533 41.8886 9.47733 41.6833 9.636C41.4873 9.78533 41.2539 9.90667 40.9833 10C40.7219 10.0933 40.4326 10.14 40.1153 10.14C39.6579 10.14 39.2846 10.0887 38.9953 9.986C38.7153 9.874 38.4633 9.69667 38.2393 9.454C38.0246 9.23 37.8753 8.95467 37.7913 8.628C37.7073 8.30133 37.6653 7.88133 37.6653 7.368V3.966H38.2533V7.228C38.2533 7.592 38.2859 7.92333 38.3513 8.222C38.4166 8.51133 38.5239 8.75867 38.6733 8.964C38.8319 9.16933 39.0419 9.328 39.3033 9.44C39.5646 9.54267 39.8913 9.594 40.2833 9.594C40.6659 9.594 40.9973 9.51467 41.2773 9.356C41.5666 9.19733 41.8046 8.99667 41.9913 8.754C42.1779 8.51133 42.3179 8.24067 42.4113 7.942C42.5046 7.634 42.5513 7.33067 42.5513 7.032V3.966H43.1393V10.798C43.1393 11.918 42.9059 12.716 42.4393 13.192C41.9819 13.668 41.2913 13.906 40.3673 13.906ZM49.1363 0.199999H52.4263C52.9116 0.199999 53.3503 0.283999 53.7423 0.451999C54.1343 0.619999 54.4703 0.848666 54.7503 1.138C55.0303 1.42733 55.245 1.76333 55.3943 2.146C55.5436 2.52867 55.6183 2.93467 55.6183 3.364C55.6183 3.784 55.5436 4.18533 55.3943 4.568C55.245 4.95067 55.0303 5.28667 54.7503 5.576C54.4703 5.856 54.1343 6.08 53.7423 6.248C53.3503 6.416 52.9116 6.5 52.4263 6.5H49.7523V10H49.1363V0.199999ZM52.4263 5.926C52.8183 5.926 53.173 5.86067 53.4903 5.73C53.8076 5.59 54.0783 5.40333 54.3023 5.17C54.5263 4.93667 54.699 4.666 54.8203 4.358C54.9416 4.04067 55.0023 3.70933 55.0023 3.364C55.0023 3.00933 54.9416 2.678 54.8203 2.37C54.699 2.05267 54.5263 1.77733 54.3023 1.544C54.0783 1.30133 53.8076 1.11467 53.4903 0.983999C53.173 0.843999 52.8183 0.773999 52.4263 0.773999H49.7523V5.926H52.4263ZM59.4636 10.14C58.9876 10.14 58.5536 10.056 58.1616 9.888C57.7789 9.72 57.4476 9.49133 57.1676 9.202C56.8969 8.91267 56.6869 8.57667 56.5376 8.194C56.3883 7.81133 56.3136 7.41 56.3136 6.99C56.3136 6.56067 56.3883 6.15467 56.5376 5.772C56.6869 5.38933 56.8969 5.05333 57.1676 4.764C57.4476 4.47467 57.7789 4.246 58.1616 4.078C58.5536 3.91 58.9876 3.826 59.4636 3.826C59.9489 3.826 60.3876 3.91 60.7796 4.078C61.1716 4.246 61.5076 4.47467 61.7876 4.764C62.0676 5.05333 62.2823 5.38933 62.4316 5.772C62.5809 6.15467 62.6556 6.56067 62.6556 6.99C62.6556 7.41 62.5809 7.81133 62.4316 8.194C62.2823 8.57667 62.0676 8.91267 61.7876 9.202C61.5076 9.49133 61.1716 9.72 60.7796 9.888C60.3876 10.056 59.9489 10.14 59.4636 10.14ZM59.4636 9.58C59.8556 9.58 60.2103 9.51 60.5276 9.37C60.8543 9.23 61.1296 9.04333 61.3536 8.81C61.5776 8.57667 61.7503 8.306 61.8716 7.998C61.9929 7.68067 62.0536 7.34467 62.0536 6.99C62.0536 6.63533 61.9929 6.304 61.8716 5.996C61.7503 5.67867 61.5776 5.40333 61.3536 5.17C61.1296 4.92733 60.8543 4.736 60.5276 4.596C60.2103 4.456 59.8556 4.386 59.4636 4.386C59.0809 4.386 58.7309 4.456 58.4136 4.596C58.1056 4.736 57.8396 4.92733 57.6156 5.17C57.3916 5.40333 57.2189 5.67867 57.0976 5.996C56.9763 6.304 56.9156 6.63533 56.9156 6.99C56.9156 7.34467 56.9763 7.68067 57.0976 7.998C57.2189 8.306 57.3916 8.57667 57.6156 8.81C57.8396 9.04333 58.1056 9.23 58.4136 9.37C58.7309 9.51 59.0809 9.58 59.4636 9.58ZM64.5172 0.199999H65.1052V10H64.5172V0.199999ZM67.174 1.516C67.174 1.32 67.2393 1.15667 67.37 1.026C67.51 0.886 67.6733 0.816 67.86 0.816C68.056 0.816 68.2193 0.886 68.35 1.026C68.49 1.15667 68.56 1.32 68.56 1.516C68.56 1.70267 68.49 1.866 68.35 2.006C68.2193 2.13667 68.056 2.202 67.86 2.202C67.6733 2.202 67.51 2.13667 67.37 2.006C67.2393 1.866 67.174 1.70267 67.174 1.516ZM67.566 3.966H68.154V10H67.566V3.966ZM75.2908 6.164C75.2628 5.93067 75.2021 5.70667 75.1088 5.492C75.0155 5.27733 74.8801 5.086 74.7028 4.918C74.5348 4.75 74.3155 4.61933 74.0448 4.526C73.7741 4.42333 73.4521 4.372 73.0788 4.372C72.6868 4.372 72.3415 4.44667 72.0428 4.596C71.7441 4.736 71.4921 4.92733 71.2868 5.17C71.0815 5.40333 70.9275 5.67867 70.8248 5.996C70.7221 6.31333 70.6708 6.64 70.6708 6.976C70.6708 7.32133 70.7221 7.65267 70.8248 7.97C70.9275 8.278 71.0768 8.55333 71.2728 8.796C71.4781 9.02933 71.7301 9.22067 72.0288 9.37C72.3368 9.51 72.6961 9.58 73.1068 9.58C73.4521 9.58 73.7508 9.538 74.0028 9.454C74.2641 9.37 74.4835 9.25333 74.6608 9.104C74.8381 8.95467 74.9781 8.782 75.0808 8.586C75.1928 8.38067 75.2721 8.16133 75.3188 7.928H75.9208C75.8741 8.236 75.7808 8.52533 75.6408 8.796C75.5101 9.06667 75.3281 9.30467 75.0948 9.51C74.8615 9.706 74.5768 9.86 74.2408 9.972C73.9048 10.084 73.5175 10.14 73.0788 10.14C72.5841 10.14 72.1501 10.0513 71.7768 9.874C71.4035 9.69667 71.0908 9.46333 70.8388 9.174C70.5868 8.87533 70.3955 8.53933 70.2648 8.166C70.1435 7.78333 70.0828 7.38667 70.0828 6.976C70.0828 6.56533 70.1481 6.17333 70.2788 5.8C70.4095 5.41733 70.6008 5.08133 70.8528 4.792C71.1048 4.49333 71.4175 4.26 71.7908 4.092C72.1641 3.91467 72.5935 3.826 73.0788 3.826C73.5548 3.826 73.9655 3.896 74.3108 4.036C74.6561 4.16667 74.9408 4.33933 75.1648 4.554C75.3888 4.76867 75.5568 5.02067 75.6688 5.31C75.7901 5.59 75.8648 5.87467 75.8928 6.164H75.2908ZM80.5626 13.906C79.5919 13.906 78.8872 13.6587 78.4486 13.164C78.0192 12.6787 77.7952 11.96 77.7766 11.008H78.3646C78.4019 11.7827 78.5839 12.3707 78.9106 12.772C79.2466 13.1733 79.8019 13.374 80.5766 13.374C81.2859 13.374 81.8226 13.1827 82.1866 12.8C82.5599 12.4173 82.7466 11.75 82.7466 10.798V8.432C82.6626 8.656 82.5459 8.87533 82.3966 9.09C82.2566 9.29533 82.0839 9.47733 81.8786 9.636C81.6826 9.78533 81.4492 9.90667 81.1786 10C80.9172 10.0933 80.6279 10.14 80.3106 10.14C79.8532 10.14 79.4799 10.0887 79.1906 9.986C78.9106 9.874 78.6586 9.69667 78.4346 9.454C78.2199 9.23 78.0706 8.95467 77.9866 8.628C77.9026 8.30133 77.8606 7.88133 77.8606 7.368V3.966H78.4486V7.228C78.4486 7.592 78.4812 7.92333 78.5466 8.222C78.6119 8.51133 78.7192 8.75867 78.8686 8.964C79.0272 9.16933 79.2372 9.328 79.4986 9.44C79.7599 9.54267 80.0866 9.594 80.4786 9.594C80.8612 9.594 81.1926 9.51467 81.4726 9.356C81.7619 9.19733 81.9999 8.99667 82.1866 8.754C82.3732 8.51133 82.5132 8.24067 82.6066 7.942C82.6999 7.634 82.7466 7.33067 82.7466 7.032V3.966H83.3346V10.798C83.3346 11.918 83.1012 12.716 82.6346 13.192C82.1772 13.668 81.4866 13.906 80.5626 13.906Z" fill="#100F0F"/>
</svg>
